<svg xmlns="http://www.w3.org/2000/svg" width="78.00" height="45.03" viewBox="0 0 78.00 45.03"><g fill="none" stroke="#B8BCC4" stroke-width="1.1"><path d="M-13.00 -22.52 L-26.00 0.00 L-52.00 0.00 L-65.00 -22.52 L-52.00 -45.03 L-26.00 -45.03 Z"></path><path d="M-13.00 22.52 L-26.00 45.03 L-52.00 45.03 L-65.00 22.52 L-52.00 0.00 L-26.00 0.00 Z"></path><path d="M-13.00 67.55 L-26.00 90.07 L-52.00 90.07 L-65.00 67.55 L-52.00 45.03 L-26.00 45.03 Z"></path><path d="M-13.00 112.58 L-26.00 135.10 L-52.00 135.10 L-65.00 112.58 L-52.00 90.07 L-26.00 90.07 Z"></path><path d="M-13.00 157.62 L-26.00 180.13 L-52.00 180.13 L-65.00 157.62 L-52.00 135.10 L-26.00 135.10 Z"></path><path d="M26.00 -45.03 L13.00 -22.52 L-13.00 -22.52 L-26.00 -45.03 L-13.00 -67.55 L13.00 -67.55 Z"></path><path d="M26.00 0.00 L13.00 22.52 L-13.00 22.52 L-26.00 0.00 L-13.00 -22.52 L13.00 -22.52 Z"></path><path d="M26.00 45.03 L13.00 67.55 L-13.00 67.55 L-26.00 45.03 L-13.00 22.52 L13.00 22.52 Z"></path><path d="M26.00 90.07 L13.00 112.58 L-13.00 112.58 L-26.00 90.07 L-13.00 67.55 L13.00 67.55 Z"></path><path d="M26.00 135.10 L13.00 157.62 L-13.00 157.62 L-26.00 135.10 L-13.00 112.58 L13.00 112.58 Z"></path><path d="M65.00 -22.52 L52.00 0.00 L26.00 0.00 L13.00 -22.52 L26.00 -45.03 L52.00 -45.03 Z"></path><path d="M65.00 22.52 L52.00 45.03 L26.00 45.03 L13.00 22.52 L26.00 0.00 L52.00 0.00 Z"></path><path d="M65.00 67.55 L52.00 90.07 L26.00 90.07 L13.00 67.55 L26.00 45.03 L52.00 45.03 Z"></path><path d="M65.00 112.58 L52.00 135.10 L26.00 135.10 L13.00 112.58 L26.00 90.07 L52.00 90.07 Z"></path><path d="M65.00 157.62 L52.00 180.13 L26.00 180.13 L13.00 157.62 L26.00 135.10 L52.00 135.10 Z"></path><path d="M104.00 -45.03 L91.00 -22.52 L65.00 -22.52 L52.00 -45.03 L65.00 -67.55 L91.00 -67.55 Z"></path><path d="M104.00 0.00 L91.00 22.52 L65.00 22.52 L52.00 0.00 L65.00 -22.52 L91.00 -22.52 Z"></path><path d="M104.00 45.03 L91.00 67.55 L65.00 67.55 L52.00 45.03 L65.00 22.52 L91.00 22.52 Z"></path><path d="M104.00 90.07 L91.00 112.58 L65.00 112.58 L52.00 90.07 L65.00 67.55 L91.00 67.55 Z"></path><path d="M104.00 135.10 L91.00 157.62 L65.00 157.62 L52.00 135.10 L65.00 112.58 L91.00 112.58 Z"></path><path d="M143.00 -22.52 L130.00 0.00 L104.00 0.00 L91.00 -22.52 L104.00 -45.03 L130.00 -45.03 Z"></path><path d="M143.00 22.52 L130.00 45.03 L104.00 45.03 L91.00 22.52 L104.00 0.00 L130.00 0.00 Z"></path><path d="M143.00 67.55 L130.00 90.07 L104.00 90.07 L91.00 67.55 L104.00 45.03 L130.00 45.03 Z"></path><path d="M143.00 112.58 L130.00 135.10 L104.00 135.10 L91.00 112.58 L104.00 90.07 L130.00 90.07 Z"></path><path d="M143.00 157.62 L130.00 180.13 L104.00 180.13 L91.00 157.62 L104.00 135.10 L130.00 135.10 Z"></path></g></svg>