<?xml version="1.0"?>
<svg xmlns="http://www.w3.org/2000/svg" width="1360" height="720" viewBox="-20 -20 340 180">
<path fill-rule="nonzero" fill="#F2B632" fill-opacity="1" d="M 150.523438 69.582031 L 125.386719 69.582031 L 125.386719 84.089844 L 119.679688 84.089844 L 119.679688 51.167969 L 121.480469 51.167969 C 123.636719 51.167969 125.386719 52.914062 125.386719 55.074219 L 125.386719 65.722656 L 150.523438 65.722656 L 150.523438 51.167969 L 156.230469 51.167969 L 156.230469 84.089844 L 154.429688 84.089844 C 152.269531 84.089844 150.523438 82.339844 150.523438 80.183594 Z M 150.523438 69.582031 "></path>
<path fill-rule="nonzero" fill="#F2B632" fill-opacity="1" d="M 179.867188 51.167969 L 180.703125 51.167969 C 183.355469 51.167969 185.503906 53.316406 185.503906 55.964844 L 185.503906 84.089844 L 179.867188 84.089844 Z M 179.867188 51.167969 "></path>
<path fill-rule="nonzero" fill="#F2B632" fill-opacity="1" d="M 224.203125 84.042969 C 222.417969 84.042969 220.785156 83.054688 219.953125 81.476562 L 203.980469 51.121094 L 207.109375 51.121094 C 208.902344 51.121094 210.542969 52.117188 211.371094 53.707031 L 224.835938 79.625 L 239.578125 51.121094 L 245.554688 51.121094 L 229.398438 81.949219 C 228.722656 83.238281 227.390625 84.042969 225.9375 84.042969 Z M 224.203125 84.042969 "></path>
<path fill-rule="nonzero" fill="#F2B632" fill-opacity="1" d="M 295.007812 51.121094 C 295.007812 53.277344 293.261719 55.027344 291.101562 55.027344 L 269.875 55.027344 L 269.875 65.675781 L 293.039062 65.675781 L 293.039062 69.582031 L 269.875 69.582031 L 269.875 80.183594 L 291.101562 80.183594 C 293.261719 80.183594 295.007812 81.933594 295.007812 84.089844 L 264.167969 84.089844 L 264.167969 51.121094 Z M 295.007812 51.121094 "></path>
<path fill-rule="nonzero" fill="#F2B632" fill-opacity="1" d="M 120.203125 98.714844 L 121.238281 98.714844 L 121.238281 107.863281 L 120.203125 107.863281 Z M 120.203125 98.714844 "></path>
<path fill-rule="nonzero" fill="#F2B632" fill-opacity="1" d="M 129.144531 98.714844 L 130.109375 98.714844 L 135.871094 106.046875 L 135.871094 98.714844 L 136.878906 98.714844 L 136.878906 107.863281 L 136.054688 107.863281 L 130.148438 100.359375 L 130.148438 107.863281 L 129.144531 107.863281 Z M 129.144531 98.714844 "></path>
<path fill-rule="nonzero" fill="#F2B632" fill-opacity="1" d="M 147.109375 99.667969 L 144.039062 99.667969 L 144.039062 98.714844 L 151.214844 98.714844 L 151.214844 99.667969 L 148.144531 99.667969 L 148.144531 107.863281 L 147.109375 107.863281 Z M 147.109375 99.667969 "></path>
<path fill-rule="nonzero" fill="#F2B632" fill-opacity="1" d="M 158.386719 98.714844 L 165 98.714844 L 165 99.65625 L 159.417969 99.65625 L 159.417969 102.777344 L 164.410156 102.777344 L 164.410156 103.71875 L 159.417969 103.71875 L 159.417969 106.921875 L 165.066406 106.921875 L 165.066406 107.863281 L 158.386719 107.863281 Z M 158.386719 98.714844 "></path>
<path fill-rule="nonzero" fill="#F2B632" fill-opacity="1" d="M 176.210938 103.378906 C 176.550781 103.378906 176.863281 103.335938 177.152344 103.25 C 177.441406 103.160156 177.6875 103.039062 177.898438 102.875 C 178.105469 102.714844 178.269531 102.519531 178.386719 102.289062 C 178.503906 102.058594 178.5625 101.792969 178.5625 101.496094 L 178.5625 101.472656 C 178.5625 100.90625 178.359375 100.464844 177.949219 100.144531 C 177.539062 99.828125 176.964844 99.667969 176.222656 99.667969 L 173.402344 99.667969 L 173.402344 103.378906 Z M 172.371094 98.714844 L 176.296875 98.714844 C 176.863281 98.714844 177.363281 98.796875 177.800781 98.957031 C 178.242188 99.117188 178.605469 99.34375 178.890625 99.628906 C 179.117188 99.855469 179.292969 100.121094 179.414062 100.425781 C 179.535156 100.730469 179.597656 101.066406 179.597656 101.433594 L 179.597656 101.457031 C 179.597656 101.84375 179.535156 102.183594 179.414062 102.484375 C 179.292969 102.785156 179.121094 103.046875 178.898438 103.269531 C 178.675781 103.492188 178.414062 103.671875 178.109375 103.816406 C 177.804688 103.960938 177.472656 104.0625 177.117188 104.125 L 179.925781 107.863281 L 178.660156 107.863281 L 176.007812 104.308594 L 173.402344 104.308594 L 173.402344 107.863281 L 172.371094 107.863281 Z M 172.371094 98.714844 "></path>
<path fill-rule="nonzero" fill="#F2B632" fill-opacity="1" d="M 187.042969 98.714844 L 188.011719 98.714844 L 193.773438 106.046875 L 193.773438 98.714844 L 194.78125 98.714844 L 194.78125 107.863281 L 193.957031 107.863281 L 188.050781 100.359375 L 188.050781 107.863281 L 187.042969 107.863281 Z M 187.042969 98.714844 "></path>
<path fill-rule="nonzero" fill="#F2B632" fill-opacity="1" d="M 208.527344 104.503906 L 206.449219 99.851562 L 204.359375 104.503906 Z M 205.980469 98.648438 L 206.945312 98.648438 L 211.113281 107.863281 L 210.003906 107.863281 L 208.933594 105.445312 L 203.953125 105.445312 L 202.867188 107.863281 L 201.808594 107.863281 Z M 205.980469 98.648438 "></path>
<path fill-rule="nonzero" fill="#F2B632" fill-opacity="1" d="M 220.5625 99.667969 L 217.492188 99.667969 L 217.492188 98.714844 L 224.664062 98.714844 L 224.664062 99.667969 L 221.59375 99.667969 L 221.59375 107.863281 L 220.5625 107.863281 Z M 220.5625 99.667969 "></path>
<path fill-rule="nonzero" fill="#F2B632" fill-opacity="1" d="M 231.929688 98.714844 L 232.964844 98.714844 L 232.964844 107.863281 L 231.929688 107.863281 Z M 231.929688 98.714844 "></path>
<path fill-rule="nonzero" fill="#F2B632" fill-opacity="1" d="M 245.140625 107.066406 C 245.664062 107.066406 246.144531 106.96875 246.585938 106.769531 C 247.027344 106.574219 247.402344 106.308594 247.714844 105.96875 C 248.03125 105.628906 248.277344 105.230469 248.453125 104.777344 C 248.632812 104.324219 248.722656 103.835938 248.722656 103.316406 L 248.722656 103.289062 C 248.722656 102.765625 248.632812 102.277344 248.453125 101.816406 C 248.277344 101.359375 248.023438 100.960938 247.703125 100.621094 C 247.382812 100.28125 247 100.011719 246.558594 99.8125 C 246.121094 99.613281 245.640625 99.511719 245.117188 99.511719 C 244.59375 99.511719 244.109375 99.609375 243.671875 99.804688 C 243.230469 100.003906 242.855469 100.269531 242.539062 100.609375 C 242.226562 100.949219 241.980469 101.347656 241.804688 101.796875 C 241.625 102.25 241.535156 102.738281 241.535156 103.261719 L 241.535156 103.289062 C 241.535156 103.8125 241.625 104.300781 241.804688 104.757812 C 241.980469 105.214844 242.230469 105.613281 242.554688 105.953125 C 242.875 106.292969 243.257812 106.5625 243.699219 106.765625 C 244.136719 106.964844 244.617188 107.066406 245.140625 107.066406 M 245.117188 108.019531 C 244.417969 108.019531 243.785156 107.894531 243.214844 107.640625 C 242.644531 107.386719 242.152344 107.046875 241.742188 106.613281 C 241.335938 106.183594 241.019531 105.683594 240.796875 105.113281 C 240.574219 104.539062 240.464844 103.941406 240.464844 103.316406 L 240.464844 103.289062 C 240.464844 102.660156 240.578125 102.058594 240.804688 101.484375 C 241.03125 100.910156 241.347656 100.40625 241.757812 99.976562 C 242.167969 99.542969 242.660156 99.199219 243.234375 98.945312 C 243.808594 98.6875 244.445312 98.558594 245.140625 98.558594 C 245.839844 98.558594 246.472656 98.683594 247.042969 98.9375 C 247.613281 99.191406 248.105469 99.53125 248.511719 99.960938 C 248.921875 100.394531 249.238281 100.894531 249.460938 101.464844 C 249.683594 102.035156 249.792969 102.636719 249.792969 103.261719 L 249.792969 103.289062 C 249.792969 103.914062 249.679688 104.515625 249.453125 105.09375 C 249.226562 105.667969 248.910156 106.167969 248.5 106.601562 C 248.089844 107.03125 247.597656 107.375 247.023438 107.632812 C 246.449219 107.890625 245.8125 108.019531 245.117188 108.019531 "></path>
<path fill-rule="nonzero" fill="#F2B632" fill-opacity="1" d="M 257.203125 98.714844 L 258.167969 98.714844 L 263.933594 106.046875 L 263.933594 98.714844 L 264.9375 98.714844 L 264.9375 107.863281 L 264.113281 107.863281 L 258.207031 100.359375 L 258.207031 107.863281 L 257.203125 107.863281 Z M 257.203125 98.714844 "></path>
<path fill-rule="nonzero" fill="#F2B632" fill-opacity="1" d="M 278.683594 104.503906 L 276.605469 99.851562 L 274.515625 104.503906 Z M 276.136719 98.648438 L 277.105469 98.648438 L 281.273438 107.863281 L 280.164062 107.863281 L 279.089844 105.445312 L 274.113281 105.445312 L 273.027344 107.863281 L 271.96875 107.863281 Z M 276.136719 98.648438 "></path>
<path fill-rule="nonzero" fill="#F2B632" fill-opacity="1" d="M 288.304688 98.714844 L 289.335938 98.714844 L 289.335938 106.90625 L 294.484375 106.90625 L 294.484375 107.863281 L 288.304688 107.863281 Z M 288.304688 98.714844 "></path>
<path fill-rule="nonzero" fill="#F2B632" fill-opacity="1" d="M 15.871094 39.488281 C 17.757812 37.445312 19.820312 35.429688 22.050781 33.464844 C 23.429688 33.96875 24.96875 34.59375 26.671875 35.332031 C 25.800781 38.242188 25.027344 41.332031 24.359375 44.578125 C 21.78125 46.679688 19.390625 48.800781 17.203125 50.929688 C 15.753906 49.769531 14.484375 48.707031 13.390625 47.730469 C 14.105469 44.847656 14.933594 42.09375 15.871094 39.488281 M 12.382812 49.601562 C 13.476562 50.679688 14.769531 51.847656 16.261719 53.117188 C 16.566406 53.378906 17.015625 53.285156 17.449219 52.871094 C 19.765625 50.652344 22.308594 48.433594 25.058594 46.230469 C 25.601562 45.796875 26.015625 45.113281 26.152344 44.433594 C 26.832031 40.984375 27.621094 37.710938 28.511719 34.640625 C 28.679688 34.070312 28.554688 33.628906 28.175781 33.484375 C 26.351562 32.761719 24.710938 32.167969 23.242188 31.707031 C 22.980469 31.628906 22.542969 31.820312 22.097656 32.214844 C 19.804688 34.242188 17.691406 36.324219 15.765625 38.4375 C 15.40625 38.828125 15.074219 39.378906 14.886719 39.878906 C 13.90625 42.554688 13.039062 45.386719 12.300781 48.355469 C 12.15625 48.933594 12.1875 49.410156 12.382812 49.601562 "></path>
<path fill-rule="nonzero" fill="#F2B632" fill-opacity="1" d="M 33.402344 33.46875 C 32.578125 36.628906 31.851562 40 31.21875 43.558594 C 31.097656 44.257812 31.328125 44.859375 31.820312 45.144531 C 34.527344 46.671875 37.4375 48.335938 40.542969 50.132812 C 41.160156 50.492188 41.976562 50.441406 42.683594 50.003906 C 46.410156 47.707031 50.246094 45.476562 54.164062 43.335938 C 54.917969 42.917969 55.417969 42.195312 55.476562 41.441406 C 55.78125 37.589844 56.121094 33.960938 56.496094 30.5625 C 56.566406 29.9375 56.214844 29.390625 55.574219 29.128906 C 52.367188 27.796875 49.304688 26.640625 46.402344 25.667969 C 45.871094 25.492188 45.144531 25.601562 44.496094 25.953125 C 41.101562 27.800781 37.804688 29.785156 34.625 31.882812 C 34.023438 32.277344 33.558594 32.882812 33.402344 33.46875 "></path>
<path fill-rule="nonzero" fill="#F2B632" fill-opacity="1" d="M 26.46875 28.25 C 28.0625 28.613281 29.828125 29.117188 31.773438 29.757812 C 32.171875 29.886719 32.769531 29.726562 33.347656 29.34375 C 36.398438 27.300781 39.566406 25.375 42.832031 23.585938 C 43.457031 23.246094 43.933594 22.75 44.078125 22.289062 C 44.78125 20.003906 45.523438 17.945312 46.308594 16.121094 C 46.449219 15.792969 46.265625 15.5625 45.835938 15.515625 C 43.679688 15.285156 41.671875 15.203125 39.824219 15.273438 C 39.488281 15.285156 38.964844 15.46875 38.457031 15.746094 C 35.789062 17.203125 33.207031 18.792969 30.734375 20.503906 C 30.257812 20.832031 29.835938 21.230469 29.625 21.550781 C 28.472656 23.3125 27.375 25.28125 26.339844 27.449219 C 26.132812 27.882812 26.179688 28.1875 26.46875 28.25 "></path>
<path fill-rule="nonzero" fill="#F2B632" fill-opacity="1" d="M 22.441406 95.75 C 20.570312 96.828125 18.886719 97.800781 17.390625 98.679688 C 15.347656 96.554688 13.492188 94.421875 11.839844 92.308594 C 11.261719 89.292969 10.816406 86.175781 10.515625 82.988281 C 11.75 81.65625 13.1875 80.257812 14.824219 78.78125 C 16.75 80.851562 18.890625 82.960938 21.238281 85.101562 C 21.507812 88.757812 21.910156 92.316406 22.441406 95.75 M 24.269531 96.417969 C 23.722656 92.78125 23.316406 89.003906 23.046875 85.117188 C 22.996094 84.363281 22.65625 83.625 22.160156 83.179688 C 19.65625 80.953125 17.378906 78.769531 15.335938 76.628906 C 14.960938 76.238281 14.523438 76.191406 14.179688 76.515625 C 12.492188 78.105469 11.019531 79.621094 9.769531 81.058594 C 9.542969 81.316406 9.441406 81.867188 9.5 82.5 C 9.8125 85.777344 10.273438 88.96875 10.886719 92.058594 C 11 92.644531 11.265625 93.25 11.578125 93.660156 C 13.265625 95.863281 15.164062 98.078125 17.265625 100.285156 C 17.679688 100.714844 18.109375 100.890625 18.390625 100.738281 C 19.984375 99.894531 21.777344 98.9375 23.773438 97.867188 C 24.183594 97.652344 24.371094 97.097656 24.269531 96.417969 "></path>
<path fill-rule="nonzero" fill="#F2B632" fill-opacity="1" d="M 5.1875 71.367188 C 5.933594 72.996094 6.886719 74.703125 8.039062 76.472656 C 8.273438 76.828125 8.550781 76.871094 8.773438 76.589844 C 9.996094 75.03125 11.445312 73.398438 13.109375 71.695312 C 13.445312 71.355469 13.667969 70.710938 13.683594 70 C 13.78125 66.308594 14.042969 62.640625 14.464844 59.03125 C 14.542969 58.351562 14.414062 57.753906 14.125 57.46875 C 12.714844 56.09375 11.503906 54.808594 10.496094 53.613281 C 10.316406 53.402344 10.03125 53.503906 9.75 53.886719 C 8.335938 55.8125 7.125 57.699219 6.121094 59.539062 C 5.933594 59.882812 5.773438 60.4375 5.699219 60.996094 C 5.3125 63.945312 5.074219 66.941406 4.992188 69.957031 C 4.976562 70.535156 5.050781 71.070312 5.1875 71.367188 "></path>
<path fill-rule="nonzero" fill="#F2B632" fill-opacity="1" d="M 39.132812 110.78125 C 35.828125 108.613281 32.648438 106.347656 29.628906 103.996094 C 29.054688 103.550781 28.4375 103.398438 28.003906 103.589844 C 25.855469 104.53125 23.90625 105.347656 22.15625 106.035156 C 21.84375 106.15625 21.75 106.566406 21.914062 107.105469 C 22.738281 109.832031 23.664062 112.371094 24.671875 114.703125 C 24.859375 115.132812 25.265625 115.636719 25.734375 116.023438 C 28.207031 118.0625 30.820312 120.003906 33.550781 121.828125 C 34.074219 122.179688 34.625 122.378906 34.988281 122.355469 C 37.007812 122.214844 39.207031 121.917969 41.570312 121.472656 C 42.050781 121.382812 42.269531 121.050781 42.148438 120.59375 C 41.480469 118.101562 40.878906 115.371094 40.339844 112.410156 C 40.234375 111.820312 39.773438 111.199219 39.132812 110.78125 "></path>
<path fill-rule="nonzero" fill="#F2B632" fill-opacity="1" d="M 70.761719 113.8125 C 67.105469 112.117188 63.390625 110.253906 59.652344 108.230469 C 58.929688 107.84375 58.054688 107.789062 57.359375 108.082031 C 53.820312 109.597656 50.421875 110.949219 47.179688 112.132812 C 46.578125 112.347656 46.261719 112.847656 46.34375 113.449219 C 46.761719 116.445312 47.230469 119.207031 47.753906 121.726562 C 47.847656 122.179688 48.296875 122.660156 48.929688 122.984375 C 52.191406 124.644531 55.46875 126.128906 58.730469 127.433594 C 59.347656 127.675781 60.078125 127.742188 60.660156 127.601562 C 63.769531 126.855469 66.988281 125.917969 70.292969 124.796875 C 70.945312 124.570312 71.359375 124.152344 71.386719 123.695312 C 71.535156 121.148438 71.683594 118.351562 71.828125 115.3125 C 71.855469 114.699219 71.453125 114.128906 70.761719 113.8125 "></path>
<path fill-rule="nonzero" fill="#F2B632" fill-opacity="1" d="M 53.996094 101.464844 C 53.839844 97.40625 53.738281 93.164062 53.6875 88.769531 C 53.679688 87.90625 53.210938 87.09375 52.457031 86.625 C 48.585938 84.191406 44.820312 81.738281 41.191406 79.277344 C 40.507812 78.816406 39.679688 78.773438 39.015625 79.167969 C 35.65625 81.164062 32.496094 83.074219 29.550781 84.894531 C 29.011719 85.226562 28.703125 85.914062 28.753906 86.695312 C 29.003906 90.71875 29.382812 94.617188 29.886719 98.355469 C 29.980469 99.054688 30.40625 99.765625 31 100.21875 C 34.136719 102.617188 37.429688 104.941406 40.855469 107.179688 C 41.515625 107.609375 42.28125 107.730469 42.871094 107.5 C 46.050781 106.222656 49.40625 104.785156 52.914062 103.195312 C 53.613281 102.882812 54.023438 102.222656 53.996094 101.464844 "></path>
<path fill-rule="nonzero" fill="#F2B632" fill-opacity="1" d="M 77.414062 21.78125 C 80.894531 23.324219 84.390625 25.042969 87.867188 26.929688 C 88.539062 27.292969 89.3125 27.40625 89.898438 27.222656 C 92.84375 26.289062 95.613281 25.523438 98.210938 24.929688 C 98.6875 24.820312 98.894531 24.46875 98.757812 24.003906 C 98.085938 21.699219 97.363281 19.621094 96.585938 17.769531 C 96.441406 17.433594 96.011719 17.046875 95.445312 16.75 C 92.53125 15.214844 89.578125 13.839844 86.609375 12.636719 C 86.046875 12.40625 85.40625 12.292969 84.929688 12.332031 C 82.34375 12.554688 79.621094 12.953125 76.78125 13.53125 C 76.21875 13.640625 75.886719 13.917969 75.914062 14.25 C 76.0625 16.117188 76.195312 18.210938 76.308594 20.542969 C 76.335938 21.019531 76.757812 21.488281 77.414062 21.78125 "></path>
<path fill-rule="nonzero" fill="#F2B632" fill-opacity="1" d="M 45.851562 59.429688 C 49.542969 57.203125 53.339844 55.011719 57.199219 52.867188 C 60.917969 54.996094 64.710938 57.207031 68.550781 59.492188 C 68.453125 63.96875 68.359375 68.496094 68.265625 73.050781 C 64.28125 75.242188 60.332031 77.414062 56.445312 79.546875 C 52.660156 77.207031 48.96875 74.867188 45.386719 72.546875 C 45.460938 68.140625 45.617188 63.757812 45.851562 59.429688 M 43.132812 59.183594 C 42.867188 63.664062 42.699219 68.207031 42.625 72.773438 C 42.613281 73.644531 43.035156 74.46875 43.734375 74.933594 C 47.433594 77.371094 51.265625 79.820312 55.199219 82.265625 C 55.953125 82.734375 56.894531 82.769531 57.664062 82.351562 C 61.730469 80.148438 65.859375 77.894531 70.019531 75.609375 C 70.824219 75.160156 71.328125 74.328125 71.347656 73.421875 C 71.445312 68.660156 71.535156 63.925781 71.613281 59.25 C 71.628906 58.363281 71.164062 57.535156 70.386719 57.082031 C 66.382812 54.714844 62.425781 52.429688 58.542969 50.246094 C 57.8125 49.84375 56.890625 49.851562 56.125 50.273438 C 52.121094 52.492188 48.195312 54.777344 44.382812 57.101562 C 43.660156 57.539062 43.183594 58.332031 43.132812 59.183594 "></path>
<path fill-rule="nonzero" fill="#F2B632" fill-opacity="1" d="M 102.632812 73.664062 C 99.335938 75.785156 95.875 77.929688 92.269531 80.089844 C 88.730469 77.878906 85.074219 75.613281 81.3125 73.304688 C 81.414062 68.789062 81.46875 64.296875 81.480469 59.859375 C 85.246094 57.828125 88.898438 55.878906 92.414062 54.019531 C 95.953125 56.335938 99.359375 58.675781 102.621094 61.023438 C 102.734375 65.199219 102.738281 69.425781 102.632812 73.664062 M 103.964844 58.863281 C 100.617188 56.40625 97.101562 53.960938 93.441406 51.554688 C 92.730469 51.089844 91.875 51.019531 91.191406 51.371094 C 87.507812 53.265625 83.683594 55.269531 79.742188 57.367188 C 78.972656 57.769531 78.492188 58.566406 78.484375 59.449219 C 78.453125 64.101562 78.386719 68.816406 78.28125 73.554688 C 78.261719 74.464844 78.722656 75.3125 79.488281 75.777344 C 83.433594 78.175781 87.277344 80.523438 90.992188 82.796875 C 91.683594 83.222656 92.558594 83.214844 93.289062 82.773438 C 97.023438 80.511719 100.601562 78.253906 103.996094 76.019531 C 104.632812 75.601562 105.035156 74.828125 105.058594 73.988281 C 105.175781 69.605469 105.164062 65.238281 105.027344 60.925781 C 105 60.109375 104.597656 59.320312 103.964844 58.863281 "></path>
<path fill-rule="nonzero" fill="#F2B632" fill-opacity="1" d="M 86.082031 41.933594 C 82.554688 43.558594 78.914062 45.308594 75.179688 47.175781 C 71.429688 45.019531 67.703125 42.96875 64.03125 41.042969 C 64.195312 37.335938 64.367188 33.832031 64.550781 30.542969 C 68.097656 28.945312 71.59375 27.5 75.011719 26.222656 C 78.472656 27.839844 81.949219 29.613281 85.414062 31.535156 C 85.683594 34.796875 85.90625 38.265625 86.082031 41.933594 M 88.839844 42.433594 C 88.613281 38.609375 88.332031 34.992188 87.992188 31.609375 C 87.929688 30.984375 87.46875 30.367188 86.773438 29.988281 C 83.207031 28.011719 79.625 26.199219 76.054688 24.558594 C 75.382812 24.25 74.5625 24.207031 73.898438 24.445312 C 70.359375 25.726562 66.738281 27.195312 63.070312 28.835938 C 62.355469 29.152344 61.882812 29.738281 61.835938 30.367188 C 61.578125 33.785156 61.34375 37.441406 61.128906 41.316406 C 61.085938 42.078125 61.511719 42.789062 62.234375 43.179688 C 66.082031 45.226562 69.992188 47.40625 73.9375 49.691406 C 74.699219 50.132812 75.640625 50.167969 76.402344 49.777344 C 80.316406 47.785156 84.121094 45.917969 87.796875 44.179688 C 88.488281 43.855469 88.882812 43.183594 88.839844 42.433594 "></path>
</svg>